HIERARCHY
ROOT Hips
{
	OFFSET	0.00	0.00	0.00
	CHANNELS 6 Xposition Yposition Zposition Zrotation Xrotation Yrotation
	JOINT LeftUpLeg
	{
		OFFSET	 0.126116	-0.014019	-0.065224
		CHANNELS 3 Zrotation Xrotation Yrotation
		JOINT LeftLeg
		{
			OFFSET	 0.000000	 0.000000	 0.569914
			CHANNELS 3 Zrotation Xrotation Yrotation
			JOINT LeftFoot
			{
				OFFSET	 0.000000	 0.000000	 0.544423
				CHANNELS 3 Zrotation Xrotation Yrotation
				JOINT LeftToeBase
				{
					OFFSET	 0.000000	 0.000000	 0.207117
					CHANNELS 3 Zrotation Xrotation Yrotation
					End Site
					{
						OFFSET	 0.000000	 0.000000	 0.207117
					}
				}
			}
		}
	}
	JOINT RightUpLeg
	{
		OFFSET	-0.124023	-0.008373	-0.065224
		CHANNELS 3 Zrotation Xrotation Yrotation
		JOINT RightLeg
		{
			OFFSET	 0.000000	 0.000000	 0.570047
			CHANNELS 3 Zrotation Xrotation Yrotation
			JOINT RightFoot
			{
				OFFSET	 0.000000	 0.000000	 0.544354
				CHANNELS 3 Zrotation Xrotation Yrotation
				JOINT RightToeBase
				{
					OFFSET	 0.000000	 0.000000	 0.207540
					CHANNELS 3 Zrotation Xrotation Yrotation
					End Site
					{
						OFFSET	 0.000000	 0.000000	 0.207540
					}
				}
			}
		}
	}
	JOINT Spine
	{
		OFFSET	 0.000184	-0.007763	 0.117403
		CHANNELS 3 Zrotation Xrotation Yrotation
		JOINT Spine1
		{
			OFFSET	 0.000000	 0.000000	 0.137269
			CHANNELS 3 Zrotation Xrotation Yrotation
			JOINT Spine2
			{
				OFFSET	 0.000000	 0.000000	 0.156879
				CHANNELS 3 Zrotation Xrotation Yrotation
				JOINT LeftShoulder
				{
					OFFSET	 0.080501	-0.002496	 0.160144
					CHANNELS 3 Zrotation Xrotation Yrotation
					JOINT LeftArm
					{
						OFFSET	 0.000000	 0.000000	 0.164363
						CHANNELS 3 Zrotation Xrotation Yrotation
						JOINT LeftForeArm
						{
							OFFSET	 0.000000	 0.000000	 0.364576
							CHANNELS 3 Zrotation Xrotation Yrotation
							JOINT LeftHand
							{
								OFFSET	 0.000000	 0.000000	 0.360812
								CHANNELS 3 Zrotation Xrotation Yrotation
								JOINT LeftHandIndex1
								{
									OFFSET	 0.000000	 0.000000	 0.086006
									CHANNELS 3 Zrotation Xrotation Yrotation
									JOINT LeftHandIndex2
									{
										OFFSET	 0.000000	 0.000000	 0.047237
										CHANNELS 3 Zrotation Xrotation Yrotation
										JOINT LeftHandIndex3
										{
											OFFSET	-0.004284	-0.000551	 0.038165
											CHANNELS 3 Zrotation Xrotation Yrotation
											End Site
											{
												OFFSET	-0.004284	-0.000551	 0.038165
											}
										}
									}
								}
							}
						}
					}
				}
				JOINT Neck
				{
					OFFSET	 0.000000	 0.000000	 0.176489
					CHANNELS 3 Zrotation Xrotation Yrotation
					JOINT Head
					{
						OFFSET	 0.000000	-0.001747	 0.077940
						CHANNELS 3 Zrotation Xrotation Yrotation
						End Site
						{
							OFFSET	 0.000000	-0.001747	 0.077940
						}
					}
				}
				JOINT RightShoulder
				{
					OFFSET	-0.080363	 0.000306	 0.159706
					CHANNELS 3 Zrotation Xrotation Yrotation
					JOINT RightArm
					{
						OFFSET	 0.000000	 0.000000	 0.164196
						CHANNELS 3 Zrotation Xrotation Yrotation
						JOINT RightForeArm
						{
							OFFSET	 0.000000	 0.000000	 0.365611
							CHANNELS 3 Zrotation Xrotation Yrotation
							JOINT RightHand
							{
								OFFSET	 0.000000	 0.000000	 0.360648
								CHANNELS 3 Zrotation Xrotation Yrotation
								JOINT RightHandIndex1
								{
									OFFSET	 0.000000	 0.000000	 0.069977
									CHANNELS 3 Zrotation Xrotation Yrotation
									JOINT RightHandIndex2
									{
										OFFSET	 0.000000	 0.000000	 0.052305
										CHANNELS 3 Zrotation Xrotation Yrotation
										JOINT RightHandIndex3
										{
											OFFSET	 0.009002	-0.000782	 0.042196
											CHANNELS 3 Zrotation Xrotation Yrotation
											End Site
											{
												OFFSET	 0.009002	-0.000782	 0.042196
											}
										}
									}
								}
							}
						}
					}
				}
			}
		}
	}
}
MOTION
Frames:    7
Frame Time: 0.03333334
-0.413887	 0.195939	 1.221484	-175.914600	 5.175818	 13.807970	 28.067130	-6.701289	 171.059400	-8.509134	-42.323040	-6.135261	 136.401500	 71.115700	-150.569600	-2.385833	 28.452760	 0.000004	-14.562010	-38.463110	 158.189100	 5.780469	-52.427190	 3.376969	-6.301456	 76.752660	 24.315050	 2.384659	 28.388700	-0.000001	 37.812660	-13.664490	-3.217771	 42.573930	 16.295850	 23.580000	-2.225305	 1.668015	-15.662660	-91.776130	 78.527400	 180.000000	-7.989559	 35.983220	 0.767551	-1.898673	-3.066043	-88.364930	 4.210640	-26.608350	-0.766209	-4.130319	 21.525730	 0.991547	-5.167930	 0.731704	 3.519349	-1.378229	 35.397820	-2.634230	-18.316140	 7.195491	 7.645545	-22.084460	-21.985130	-15.109380	 89.782100	 78.319320	 179.987000	 55.315160	 0.448626	-13.956170	-14.993220	-9.794635	 47.236780	-21.118620	-0.085190	-75.859380	 5.716227	 19.173190	-3.685159	 5.027444	 0.246877	-9.377972	-2.350882	 35.473990	 5.254307
-0.416198	 0.200377	 1.222475	-175.510600	 5.067781	 13.477560	 28.496540	-5.769508	 171.112100	-8.426437	-41.411610	-5.972675	 136.186500	 71.346880	-150.282400	-2.385833	 28.452760	 0.000004	-14.256340	-37.967950	 158.909500	 6.034795	-52.378130	 3.576625	-6.304112	 77.154750	 23.886220	 2.384659	 28.388700	-0.000001	 36.704350	-12.845470	-3.217408	 41.786690	 15.307270	 24.142910	-1.903206	 1.995961	-15.392510	-91.776190	 78.527360	-180.000000	-8.711731	 35.177230	 2.860594	-1.923433	-3.115709	-88.845860	 4.474241	-26.917650	-0.677600	-4.130319	 21.525730	 0.991547	-5.167930	 0.731704	 3.519349	-1.378229	 35.397820	-2.634230	-17.978890	 7.556380	 7.597184	-21.993070	-22.494920	-15.165440	 89.782250	 78.316620	 179.987400	 55.109070	-2.748439	-13.942500	-14.756070	-8.951465	 45.465610	-23.780810	 0.649770	-72.094920	 5.716227	 19.173190	-3.685159	 5.027444	 0.246877	-9.377972	-2.350882	 35.473990	 5.254307
-0.418292	 0.204473	 1.223430	-175.131200	 4.924658	 13.043120	 28.879200	-4.741143	 171.249900	-8.392897	-40.453730	-5.837374	 135.905000	 71.500500	-149.903200	-2.385833	 28.452760	 0.000004	-13.791800	-37.544320	 159.761100	 6.215498	-52.383310	 3.720358	-5.906744	 77.533740	 23.105550	 2.384659	 28.388700	-0.000001	 35.682670	-11.962750	-3.131633	 41.056560	 14.374240	 24.671200	-1.604611	 2.293062	-15.110900	-91.776210	 78.527360	-180.000000	-9.426555	 34.454340	 4.810218	-1.951170	-3.160140	-89.364470	 4.723405	-27.265260	-0.586462	-4.130319	 21.525730	 0.991547	-5.167930	 0.731704	 3.519349	-1.378229	 35.397820	-2.634230	-17.691110	 7.807786	 7.678015	-21.883000	-22.809470	-15.395830	 89.782140	 78.314320	 179.988000	 54.077170	-5.410539	-13.592420	-14.665090	-8.002411	 42.586910	-25.880980	 0.002417	-68.269350	 5.716227	 19.173190	-3.685159	 5.027444	 0.246877	-9.377972	-2.350882	 35.473990	 5.254307
-0.420355	 0.208098	 1.224370	-174.842500	 4.743765	 12.264390	 29.174390	-3.432973	 171.779100	-8.481633	-39.280360	-5.753901	 135.214800	 71.390790	-149.025300	-2.385833	 28.452760	 0.000004	-12.810380	-37.385050	 161.086400	 6.173427	-52.519760	 3.693689	-4.261879	 77.822450	 21.188430	 2.384659	 28.388700	-0.000001	 34.884770	-10.954040	-2.699747	 40.376590	 13.566030	 25.149970	-1.359578	 2.527005	-14.840850	-91.776120	 78.527330	 179.999900	-10.217580	 33.825530	 6.509382	-1.975417	-3.188592	-89.805720	 4.912683	-27.725510	-0.496403	-4.130319	 21.525730	 0.991547	-5.167930	 0.731704	 3.519349	-1.378229	 35.397820	-2.634230	-17.555880	 7.733070	 8.150966	-21.720210	-22.543810	-16.147710	 89.782160	 78.312970	 179.988000	 52.819000	-7.364175	-13.082320	-14.626550	-7.173862	 39.633370	-27.465130	-1.029814	-65.359630	 5.716227	 19.173190	-3.685159	 5.027444	 0.246877	-9.377972	-2.350882	 35.473990	 5.254307
-0.422213	 0.211424	 1.225259	-174.505300	 4.527876	 11.552510	 29.465120	-2.168374	 172.214200	-8.568033	-38.060180	-5.657853	 134.497100	 71.310520	-148.109700	-2.385833	 28.452760	 0.000004	-11.888790	-37.228510	 162.326000	 6.140054	-52.629280	 3.672491	-2.549447	 78.064610	 19.181590	 2.384659	 28.388700	-0.000001	 34.022720	-10.020520	-2.270627	 39.752800	 12.658450	 25.619710	-1.086244	 2.822429	-14.602210	-91.776270	 78.527380	-179.999900	-11.072500	 33.322120	 8.143114	-2.000044	-3.190450	-90.248730	 5.102188	-28.247360	-0.409944	-4.130319	 21.525730	 0.991547	-5.167930	 0.731704	 3.519349	-1.378229	 35.397820	-2.634230	-17.386010	 7.673427	 8.510451	-21.528320	-22.378600	-16.641760	 89.782200	 78.311280	 179.988300	 51.325860	-8.840840	-12.716550	-14.500620	-6.532317	 37.449850	-29.088340	-2.201360	-63.274930	 5.716227	 19.173190	-3.685159	 5.027444	 0.246877	-9.377972	-2.350882	 35.473990	 5.254307
-0.423584	 0.214496	 1.226038	-174.049900	 4.293409	 11.252980	 29.777710	-1.246982	 172.167000	-8.644610	-37.031200	-5.574912	 134.666100	 71.220390	-148.073600	-2.385833	 28.452760	 0.000004	-11.333790	-36.934300	 163.016700	 6.150626	-52.616330	 3.680280	-1.380953	 78.439170	 17.644980	 2.384659	 28.388700	-0.000001	 32.990610	-9.408019	-2.143807	 39.263010	 11.656360	 26.042310	-0.760304	 3.260626	-14.481620	-91.776270	 78.527380	-179.999900	-12.032860	 33.106250	 9.790741	-2.028023	-3.084136	-90.776940	 5.252348	-28.916120	-0.365949	-4.130319	 21.525730	 0.991547	-5.167930	 0.731704	 3.519349	-1.378229	 35.397820	-2.634230	-17.110480	 7.676426	 8.336128	-21.255770	-22.619670	-15.979410	 89.782150	 78.306900	 179.988700	 50.238540	-9.895248	-12.621200	-14.573010	-6.286959	 36.164020	-30.478680	-3.282335	-61.768100	 5.716227	 19.173190	-3.685159	 5.027444	 0.246877	-9.377972	-2.350882	 35.473990	 5.254307
-0.424974	 0.217836	 1.226925	-173.481700	 4.018980	 10.943580	 30.166740	-0.237126	 172.047800	-8.752968	-35.827400	-5.483860	 134.560900	 71.141460	-147.740700	-2.385833	 28.452760	 0.000004	-10.648250	-36.627820	 163.772900	 6.111110	-52.580010	 3.647042	 0.476915	 78.828210	 15.343060	 2.384659	 28.388700	-0.000001	 31.736510	-8.743934	-2.000090	 38.740820	 10.432050	 26.512370	-0.354975	 3.825744	-14.339390	-91.776180	 78.527430	 180.000000	-13.256910	 32.933320	 11.668140	-2.057567	-2.926894	-91.397220	 5.441757	-29.781230	-0.322525	-4.130319	 21.525730	 0.991547	-5.167930	 0.731704	 3.519349	-1.378229	 35.397820	-2.634230	-16.770400	 7.677033	 8.194530	-20.937750	-22.847390	-15.354350	 89.782210	 78.301250	 179.989300	 48.803040	-10.821460	-12.836960	-14.600200	-6.139355	 35.432540	-32.133400	-4.611037	-60.687340	 5.716227	 19.173190	-3.685159	 5.027444	 0.246877	-9.377972	-2.350882	 35.473990	 5.254307
